:SAMPLES-PER-SECOND 24
:FULLY-SPECIFIED
:DEGREES
148
root  -1.24164 35.0475 30.6457 -170.107 -52.9027 163.137
RightUpLeg  -27.3873 -14.0451 -31.1803
RightLeg  44.1953 4.26691 4.21239
RightFoot  -5.33037 -0.717527 12.9349
RightToes  -1.46203e-006 3.27826e-006 1.63871e-007
Spine  9.05948 -2.99984 -14.2667
Spine1  11.18 -6.84211 6.73979
HEad  -22.7092 -26.6631 14.5611
LeftShoulder1  1.19381 -2.97917 -11.211
LeftArm  53.1926 -49.2766 -95.8852
LeftForeArm  46.8075 -77.2783 -55.4518
LeftHand  -0.345972 3.21995 17.9792
RightShoulder  2.60921 4.97559 24.6554
RightArm  -44.1212 11.61 9.06994
RightForeArm  119.051 74.7059 135.343
RightHand  -0.250887 -4.50541 -33.0443
LeftUpLeg  -3.15437 16.0644 11.4393
LeftLeg  42.2085 -9.92415 -9.08596
LeftFoot  -25.3366 -2.02092 -17.5255
LeftToes  1.24767e-006 1.47042e-008 1.32732e-009
149
root  -1.40776 35.5892 30.7954 -171.265 -54.3766 164.345
RightUpLeg  -23.5827 -11.7834 -30.8122
RightLeg  38.9552 2.29064 1.7099
RightFoot  -3.82989 -1.14112 16.8188
RightToes  -1.46203e-006 3.27826e-006 1.63871e-007
Spine  7.48737 -2.137 -10.6324
Spine1  12.9452 -4.4031 2.54356
HEad  -25.2779 -30.1744 16.8111
LeftShoulder1  1.47042 -3.10483 -15.4331
LeftArm  45.8364 -40.7232 -78.0676
LeftForeArm  77.86 -79.6505 -79.3665
LeftHand  -0.234738 3.30679 12.6537
RightShoulder  3.4305 5.81408 30.9356
RightArm  -34.5951 -5.64968 15.0055
RightForeArm  142.784 70.2494 149.68
RightHand  -0.604059 -3.07401 -29.6441
LeftUpLeg  -2.3553 14.2182 11.598
LeftLeg  39.5687 -9.39323 -7.82553
LeftFoot  -23.3601 -1.79011 -18.203
LeftToes  1.24767e-006 1.47042e-008 1.32732e-009
150
root  -1.67337 37.1711 30.5486 -173.211 -54.2724 167.739
RightUpLeg  -18.5153 -13.6981 -27.9184
RightLeg  28.1421 5.02994 2.66385
RightFoot  3.67506 -2.36455 17.9899
RightToes  -1.46203e-006 3.27826e-006 1.63871e-007
Spine  5.77189 -1.34568 -7.83804
Spine1  11.7654 -2.85241 1.98368
HEad  -22.714 -31.4286 14.5462
LeftShoulder1  1.67418 -3.11314 -18.7596
LeftArm  36.4141 -24.3967 -61.189
LeftForeArm  88.88 -79.9265 -88.5364
LeftHand  -0.217773 3.06763 10.4126
RightShoulder  3.78138 6.11372 33.44
RightArm  -22.8854 -19.7016 24.3828
RightForeArm  141.695 75.0994 138.932
RightHand  -0.407713 -3.34891 -22.3267
LeftUpLeg  0.706687 12.4003 12.312
LeftLeg  30.7972 -8.47736 -5.04484
LeftFoot  -15.3572 -0.59778 -19.7891
LeftToes  1.24767e-006 1.47042e-008 1.32732e-009
151
root  -1.77751 39.0635 30.1716 -175.985 -54.4253 171.769
RightUpLeg  -12.3252 -16.6792 -24.5389
RightLeg  15.2585 8.00381 2.2893
RightFoot  16.0657 -4.1979 17.5581
RightToes  -1.46203e-006 3.27826e-006 1.63871e-007
Spine  5.05188 -0.76876 -6.60072
Spine1  10.2308 -2.44826 4.06444
HEad  -17.9658 -31.2165 12.1051
LeftShoulder1  1.70798 -3.14153 -19.1876
LeftArm  29.9127 -8.33234 -54.2041
LeftForeArm  81.0741 -79.7785 -81.2963
LeftHand  -0.187347 3.93527 14.1601
RightShoulder  3.82245 6.18177 33.5834
RightArm  -10.8572 -27.2423 29.3916
RightForeArm  86.7474 79.9902 83.3861
RightHand  -0.318816 -3.68707 -21.1793
LeftUpLeg  3.80985 10.7444 13.6798
LeftLeg  21.0619 -4.86739 -1.7574
LeftFoot  -2.0944 1.61093 -19.5988
LeftToes  1.24767e-006 1.47042e-008 1.32732e-009
152
root  -1.74077 40.4616 29.7282 -178.687 -56.7138 174.858
RightUpLeg  -6.59229 -13.4196 -22.9143
RightLeg  8.59229 7.86576 1.67495
RightFoot  20.6557 -5.07334 18.0925
RightToes  -1.46203e-006 3.27826e-006 1.63871e-007
Spine  4.1452 -1.22057 -6.01501
Spine1  11.1937 -3.28766 5.84437
HEad  -14.9573 -30.6715 11.6491
LeftShoulder1  1.68258 -3.5028 -17.3723
LeftArm  24.1349 1.90222 -52.5167
LeftForeArm  87.126 -79.9114 -86.3377
LeftHand  -0.195873 4.12536 17.3148
RightShoulder  3.67476 6.09487 32.3996
RightArm  0.00854135 -30.5834 31.3308
RightForeArm  56.4128 77.4707 50.9911
RightHand  -0.294196 -3.70801 -19.1945
LeftUpLeg  4.80472 7.93388 14.7037
LeftLeg  15.4151 0.991313 0.446884
LeftFoot  9.76594 2.8821 -15.7112
LeftToes  1.24767e-006 1.47042e-008 1.32732e-009
153
root  -1.55817 40.9889 29.5109 -177.11 -58.1596 173.663
RightUpLeg  -6.81847 -11.9142 -23.3336
RightLeg  14.1433 11.1953 2.99939
RightFoot  16.0102 -4.10931 17.1804
RightToes  -1.46203e-006 3.27826e-006 1.63871e-007
Spine  2.43905 -1.66973 -7.06247
Spine1  13.3551 -3.9183 6.31286
HEad  -15.2696 -30.1659 11.4332
LeftShoulder1  1.60178 -3.767 -15.2031
LeftArm  19.1622 6.91086 -51.9456
LeftForeArm  110.217 -79.3435 -109.31
LeftHand  -0.234587 3.71986 15.6538
RightShoulder  3.2813 5.73695 29.5828
RightArm  5.56438 -31.2227 32.7509
RightForeArm  70.6606 78.6126 55.4547
RightHand  -0.224852 -2.45557 -8.87535
LeftUpLeg  2.63961 7.24979 12.4134
LeftLeg  16.6881 2.31149 1.05105
LeftFoot  13.2756 2.55461 -11.9823
LeftToes  1.24767e-006 1.47042e-008 1.32732e-009
154
root  -1.22981 40.8019 29.415 -176.239 -57.9591 172.255
RightUpLeg  -7.80678 -10.9592 -24.2449
RightLeg  22.8499 11.3492 5.00394
RightFoot  13.7238 -3.23449 14.9085
RightToes  -1.46203e-006 3.27826e-006 1.63871e-007
Spine  3.16989 -1.43063 -7.94043
Spine1  13.2488 -3.73018 5.73964
HEad  -15.2551 -30.491 10.2209
LeftShoulder1  1.50672 -3.63516 -14.1922
LeftArm  15.7115 8.46925 -50.8035
LeftForeArm  127.683 -77.4049 -127.349
LeftHand  -0.147957 4.23785 13.7395
RightShoulder  2.91722 5.30819 27.117
RightArm  7.24146 -29.2176 31.8656
RightForeArm  93.7933 80.432 75.9152
RightHand  -0.0227138 -0.416849 -0.513364
LeftUpLeg  0.803627 8.34696 10.1466
LeftLeg  22.2959 -2.85584 -0.992732
LeftFoot  9.51396 2.11651 -11.7858
LeftToes  1.24767e-006 1.47042e-008 1.32732e-009
155
root  -0.932881 40.1643 29.3135 -178.234 -57.6864 173.327
RightUpLeg  -7.09361 -9.11308 -23.7681
RightLeg  28.3136 7.96468 4.40955
RightFoot  11.9975 -3.22368 15.9222
RightToes  -1.46203e-006 3.27826e-006 1.63871e-007
Spine  5.49848 -0.951086 -6.86399
Spine1  10.8608 -3.06565 4.58368
HEad  -11.8242 -31.8563 8.77447
LeftShoulder1  1.49215 -3.4806 -14.4767
LeftArm  13.8598 7.0177 -48.7759
LeftForeArm  133.519 -76.0712 -134.064
LeftHand  -0.073786 4.87546 13.6846
RightShoulder  2.80516 5.13142 26.4768
RightArm  5.6021 -25.9327 28.7146
RightForeArm  106.654 80.3164 96.47
RightHand  0.00331431 -0.734704 0.184276
LeftUpLeg  0.572721 7.78383 9.64527
LeftLeg  27.058 -5.91146 -2.92407
LeftFoot  2.7253 1.55929 -12.7319
LeftToes  1.24767e-006 1.47042e-008 1.32732e-009
156
root  -0.750355 39.1386 29.1021 179.1 -58.1826 175.282
RightUpLeg  -5.25466 -8.42622 -22.6552
RightLeg  31.0759 5.55364 3.38191
RightFoot  3.13124 -2.40866 19.0045
RightToes  -1.46203e-006 3.27826e-006 1.63871e-007
Spine  6.21108 -0.671089 -6.02724
Spine1  10.3353 -2.78613 4.49353
HEad  -9.07142 -33.4828 8.92497
LeftShoulder1  1.50454 -3.17422 -15.7559
LeftArm  12.6511 1.78987 -45.8548
LeftForeArm  131.439 -75.7324 -134.769
LeftHand  -0.0352618 5.2115 13.6385
RightShoulder  2.90127 5.20033 27.3548
RightArm  -0.896718 -20.2311 24.0943
RightForeArm  106.494 79.9853 100.969
RightHand  -0.0703628 -1.96399 -2.0428
LeftUpLeg  1.17902 5.62465 10.4761
LeftLeg  29.7955 -3.67827 -1.91604
LeftFoot  -5.92259 0.694964 -13.9435
LeftToes  1.24767e-006 1.47042e-008 1.32732e-009
157
root  -0.59907 38.0341 28.7989 178.088 -57.813 175.48
RightUpLeg  -3.72642 -9.351 -22.6514
RightLeg  32.2136 6.02724 3.85585
RightFoot  -7.83882 -0.665151 18.996
RightToes  -1.46203e-006 3.27826e-006 1.63871e-007
Spine  4.54299 -0.287239 -7.31888
Spine1  13.5897 -2.64098 4.57607
HEad  -9.94419 -34.3847 11.2029
LeftShoulder1  1.45978 -2.59991 -17.2603
LeftArm  10.8 -5.62928 -43.3967
LeftForeArm  125.049 -76.6751 -129.844
LeftHand  0.0808249 6.16633 14.3158
RightShoulder  3.11264 5.37256 29.1407
RightArm  -11.0761 -10.5092 19.823
RightForeArm  85.9801 79.9994 76.7262
RightHand  -0.102356 -3.43302 -5.16321
LeftUpLeg  3.01588 5.63438 11.5178
LeftLeg  30.2306 -2.04263 -0.929587
LeftFoot  -14.3426 -0.327606 -15.5518
LeftToes  1.24767e-006 1.47042e-008 1.32732e-009
158
root  -0.558292 37.7736 28.5492 177.509 -55.7045 175.552
RightUpLeg  -2.8382 -10.6802 -22.9559
RightLeg  31.0662 8.59994 5.34084
RightFoot  -10.7529 -0.154063 16.4283
RightToes  -1.46203e-006 3.27826e-006 1.63871e-007
Spine  2.19605 -0.044379 -7.56917
Spine1  17.1713 -2.06564 2.99273
HEad  -8.71323 -34.1821 12.5218
LeftShoulder1  1.46942 -2.38934 -18.3595
LeftArm  9.885 -9.24394 -44.0995
LeftForeArm  114.268 -78.4271 -117.881
LeftHand  0.228481 7.16743 15.9228
RightShoulder  3.28051 5.5084 30.5039
RightArm  -21.3845 -1.43323 19.4908
RightForeArm  68.6828 78.3815 53.7391
RightHand  0.00535184 -5.63649 -10.3255
LeftUpLeg  6.35615 7.84807 12.3684
LeftLeg  26.8538 -3.21265 -1.3833
LeftFoot  -17.495 -0.824739 -17.1355
LeftToes  1.24767e-006 1.47042e-008 1.32732e-009
159
root  -0.645818 38.6147 28.3311 176.136 -53.0057 177.651
RightUpLeg  -2.5675 -12.745 -21.9544
RightLeg  27.9554 13.6004 7.50646
RightFoot  -4.47032 -1.01732 16.3324
RightToes  -1.46203e-006 3.27826e-006 1.63871e-007
Spine  0.514504 -0.168958 -6.10802
Spine1  17.8105 -1.85931 2.35535
HEad  -2.48666 -33.3937 10.8122
LeftShoulder1  1.65567 -2.81409 -19.7272
LeftArm  11.5853 -6.19949 -47.7465
LeftForeArm  100.676 -79.3596 -104.971
LeftHand  0.205611 6.88375 17.0334
RightShoulder  3.28331 5.50383 30.5546
RightArm  -28.2821 2.87149 21.7582
RightForeArm  75.7293 79.3094 62.1607
RightHand  0.15013 -6.77631 -14.2071
LeftUpLeg  8.4327 8.52147 13.0692
LeftLeg  22.8266 -0.18318 0.264866
LeftFoot  -11.6735 0.0162543 -18.239
LeftToes  1.24767e-006 1.47042e-008 1.32732e-009
160
root  -0.622017 39.7472 28.081 175.208 -49.1016 179.64
RightUpLeg  -4.28685 -14.754 -20.1285
RightLeg  25.7531 18.0034 9.05051
RightFoot  5.25697 -2.59389 17.9113
RightToes  -1.46203e-006 3.27826e-006 1.63871e-007
Spine  0.614482 0.0211136 -5.70582
Spine1  16.0655 -1.93379 3.71041
HEad  2.88857 -31.8515 8.72675
LeftShoulder1  1.8797 -3.37615 -20.9276
LeftArm  14.262 -0.931749 -51.2025
LeftForeArm  95.3581 -79.5306 -100.138
LeftHand  0.0226458 5.60901 17.7052
RightShoulder  3.13017 5.29193 29.6766
RightArm  -30.8154 6.04709 22.0937
RightForeArm  98.6407 80.1099 93.7472
RightHand  0.0957561 -6.16874 -16.623
LeftUpLeg  7.98356 8.6881 13.6291
LeftLeg  22.6257 6.24356 3.20246
LeftFoot  -0.994728 1.44871 -15.9985
LeftToes  1.24767e-006 1.47042e-008 1.32732e-009
161
root  -0.52133 40.4673 27.8659 175.173 -43.93 179.967
RightUpLeg  -7.09764 -17.1919 -18.739
RightLeg  24.1339 17.4243 8.16733
RightFoot  9.73999 -3.42578 18.6491
RightToes  -1.46203e-006 3.27826e-006 1.63871e-007
Spine  1.35166 0.213467 -6.02636
Spine1  15.4371 -1.80296 4.39412
HEad  3.93484 -28.5475 8.65867
LeftShoulder1  1.96824 -3.92621 -20.0452
LeftArm  16.0834 1.49053 -53.5434
LeftForeArm  99.0504 -79.6827 -100.387
LeftHand  -0.1708 4.35993 18.3538
RightShoulder  2.78543 4.72522 27.8934
RightArm  -31.4509 12.4645 21.0905
RightForeArm  114.732 78.7695 115.814
RightHand  -0.136728 -4.64779 -19.6551
LeftUpLeg  7.9856 9.05886 13.1043
LeftLeg  22.452 6.40012 3.24275
LeftFoot  3.85701 1.56645 -11.7828
LeftToes  1.24767e-006 1.47042e-008 1.32732e-009
162
root  -0.555121 40.7231 27.7471 175.819 -38.0322 179.883
RightUpLeg  -10.2696 -21.5337 -16.9461
RightLeg  19.7801 15.7367 5.84683
RightFoot  7.03308 -2.97011 18.5245
RightToes  -1.46203e-006 3.27826e-006 1.63871e-007
Spine  1.0005 -0.147042 -5.03874
Spine1  16.1659 -1.65446 3.53286
HEad  3.80826 -23.4134 8.67369
LeftShoulder1  1.97709 -4.61014 -17.7621
LeftArm  16.1432 0.832869 -55.2211
LeftForeArm  99.9558 -79.7693 -99.8302
LeftHand  -0.254452 3.84337 18.585
RightShoulder  2.27529 3.8406 24.9036
RightArm  -32.2513 21.3758 21.2895
RightForeArm  120.623 78.1804 121.496
RightHand  -0.543113 -2.68947 -22.9672
LeftUpLeg  9.48292 6.93377 10.8365
LeftLeg  18.8313 2.16681 1.12652
LeftFoot  1.46642 1.18976 -10.6191
LeftToes  1.24767e-006 1.47042e-008 1.32732e-009
